<svg width="32.000000" height="32.000000" viewBox="0 0 32 32" fill="none" xmlns="http://www.w3.org/2000/svg" xmlns:xlink="http://www.w3.org/1999/xlink">
	<desc>
			Created with Pixso.
	</desc>
	<defs>
		<clipPath id="clip10_8857">
			<rect id="Icon_Profile" rx="0.000000" width="23.000000" height="23.000000" transform="translate(4.500000 4.500000)" fill="white" fill-opacity="0"/>
		</clipPath>
		<clipPath id="clip10_8858">
			<rect id="Icon_main" width="32.000000" height="32.000000" fill="white" fill-opacity="0"/>
		</clipPath>
	</defs>
	<g clip-path="url(#clip10_8858)">
		<rect id="Icon_Profile" rx="0.000000" width="23.000000" height="23.000000" transform="translate(4.500000 4.500000)" fill="#FFFFFF" fill-opacity="0"/>
		<g clip-path="url(#clip10_8857)">
			<path id="Vector" d="M16 17C13.23 17 11 14.76 11 12C11 9.23 13.23 7 16 7C18.76 7 21 9.23 21 12C21 14.76 18.76 17 16 17Z" stroke="#E3E2E1" stroke-opacity="1.000000" stroke-width="1.000000" stroke-linejoin="round"/>
			<path id="Vector" d="M24 25C24 22.87 23.15 20.84 21.65 19.34C20.15 17.84 18.12 17 16 17C13.87 17 11.84 17.84 10.34 19.34C8.84 20.84 8 22.87 8 25" stroke="#E3E2E1" stroke-opacity="1.000000" stroke-width="1.000000" stroke-linejoin="round" stroke-linecap="round"/>
		</g>
	</g>
</svg>
