<svg width="32.000000" height="32.000000" viewBox="0 0 32 32" fill="none" xmlns="http://www.w3.org/2000/svg" xmlns:xlink="http://www.w3.org/1999/xlink">
	<desc>
			Created with Pixso.
	</desc>
	<defs>
		<clipPath id="clip10_3628">
			<rect id="Frame" rx="0.000000" width="23.000000" height="23.000000" transform="translate(4.500000 4.500000)" fill="white" fill-opacity="0"/>
		</clipPath>
		<clipPath id="clip10_3627">
			<rect id="Name=Sell, State=Default" rx="0.000000" width="31.000000" height="31.000000" transform="translate(0.500000 0.500000)" fill="white" fill-opacity="0"/>
		</clipPath>
	</defs>
	<g clip-path="url(#clip10_3627)">
		<rect id="Frame" rx="0.000000" width="23.000000" height="23.000000" transform="translate(4.500000 4.500000)" fill="#FFFFFF" fill-opacity="0"/>
		<g clip-path="url(#clip10_3628)">
			<path id="Vector" d="M15 19L17 19C17.53 19 18.03 18.78 18.41 18.41C18.78 18.03 19 17.53 19 17C19 16.46 18.78 15.96 18.41 15.58C18.03 15.21 17.53 15 17 15L14 15C13.4 15 12.9 15.2 12.6 15.6L7 21" stroke="#120C08" stroke-opacity="1.000000" stroke-width="1.000000" stroke-linejoin="round" stroke-linecap="round"/>
			<path id="Vector" d="M11 25L12.6 23.6C12.9 23.2 13.4 23 14 23L18 23C19.1 23 20.1 22.6 20.8 21.8L25.4 17.4C25.78 17.03 26.01 16.53 26.02 16C26.04 15.47 25.84 14.95 25.48 14.57C25.11 14.18 24.61 13.95 24.08 13.94C23.55 13.92 23.03 14.12 22.65 14.49L18.45 18.39" stroke="#120C08" stroke-opacity="1.000000" stroke-width="1.000000" stroke-linejoin="round" stroke-linecap="round"/>
			<path id="Vector" d="M6 20L12 26" stroke="#120C08" stroke-opacity="1.000000" stroke-width="1.000000" stroke-linejoin="round" stroke-linecap="round"/>
			<path id="Vector" d="M20 15.9C18.39 15.9 17.1 14.6 17.1 13C17.1 11.39 18.39 10.1 20 10.1C21.6 10.1 22.9 11.39 22.9 13C22.9 14.6 21.6 15.9 20 15.9Z" stroke="#120C08" stroke-opacity="1.000000" stroke-width="1.000000" stroke-linejoin="round"/>
			<path id="Vector" d="M10 12C8.34 12 7 10.65 7 9C7 7.34 8.34 6 10 6C11.65 6 13 7.34 13 9C13 10.65 11.65 12 10 12Z" stroke="#120C08" stroke-opacity="1.000000" stroke-width="1.000000" stroke-linejoin="round"/>
		</g>
	</g>
</svg>
