<svg width="32.000000" height="32.000000" viewBox="0 0 32 32" fill="none" xmlns="http://www.w3.org/2000/svg" xmlns:xlink="http://www.w3.org/1999/xlink">
	<desc>
			Created with Pixso.
	</desc>
	<defs>
		<clipPath id="clip10_3320">
			<rect id="Frame" rx="0.000000" width="23.000000" height="23.000000" transform="translate(4.500000 4.500000)" fill="white" fill-opacity="0"/>
		</clipPath>
		<clipPath id="clip10_3319">
			<rect id="Name=Wives, State=Default" rx="0.000000" width="31.000000" height="31.000000" transform="translate(0.500000 0.500000)" fill="white" fill-opacity="0"/>
		</clipPath>
	</defs>
	<g clip-path="url(#clip10_3319)">
		<rect id="Frame" rx="0.000000" width="23.000000" height="23.000000" transform="translate(4.500000 4.500000)" fill="#FFFFFF" fill-opacity="0"/>
		<g clip-path="url(#clip10_3320)">
			<path id="Vector" d="M21 25L21 23C20.73 23 20.48 22.89 20.29 22.7C20.1 22.51 20 22.26 20 22L20 21C20 20.46 20.21 19.96 20.58 19.58C20.96 19.21 21.46 19 22 19L24 19C24.53 19 25.03 19.21 25.41 19.58C25.78 19.96 26 20.46 26 21L26 22C26 22.26 25.89 22.51 25.7 22.7C25.51 22.89 25.26 23 25 23" stroke="#120C08" stroke-opacity="1.000000" stroke-width="1.000000" stroke-linejoin="round" stroke-linecap="round"/>
			<path id="Vector" d="M23 19L23 10.5C23 9.57 22.63 8.68 21.97 8.02C21.31 7.36 20.42 7 19.5 7C18.57 7 17.68 7.36 17.02 8.02C16.36 8.68 16 9.57 16 10.5L16 21.5C16 22.42 15.63 23.31 14.97 23.97C14.31 24.63 13.42 25 12.5 25C11.57 25 10.68 24.63 10.02 23.97C9.36 23.31 9 22.42 9 21.5L9 13" stroke="#120C08" stroke-opacity="1.000000" stroke-width="1.000000" stroke-linejoin="round" stroke-linecap="round"/>
			<path id="Vector" d="M25 25L25 23L21 23" stroke="#120C08" stroke-opacity="1.000000" stroke-width="1.000000" stroke-linejoin="round" stroke-linecap="round"/>
			<path id="Vector" d="M7 9L11 9L11 7" stroke="#120C08" stroke-opacity="1.000000" stroke-width="1.000000" stroke-linejoin="round" stroke-linecap="round"/>
			<path id="Vector" d="M11 9C11.26 9 11.51 9.1 11.7 9.29C11.89 9.48 12 9.73 12 10L12 11C12 11.53 11.78 12.03 11.41 12.41C11.03 12.78 10.53 13 10 13L8 13C7.46 13 6.96 12.78 6.58 12.41C6.21 12.03 6 11.53 6 11L6 10C6 9.73 6.1 9.48 6.29 9.29C6.48 9.1 6.73 9 7 9L7 7" stroke="#120C08" stroke-opacity="1.000000" stroke-width="1.000000" stroke-linejoin="round" stroke-linecap="round"/>
		</g>
	</g>
</svg>
