<svg width="32.000000" height="32.000000" viewBox="0 0 32 32" fill="none" xmlns="http://www.w3.org/2000/svg" xmlns:xlink="http://www.w3.org/1999/xlink">
	<desc>
			Created with Pixso.
	</desc>
	<defs>
		<clipPath id="clip36_451">
			<rect id="Frame" rx="0.000000" width="23.000000" height="23.000000" transform="matrix(-1 0 0 1 28.5 4.5)" fill="white" fill-opacity="0"/>
		</clipPath>
		<clipPath id="clip36_447">
			<rect id="Name=Sell, State=Default" rx="0.000000" width="31.000000" height="31.000000" transform="matrix(-1 0 0 1 32.5 0.5)" fill="white" fill-opacity="0"/>
		</clipPath>
	</defs>
	<g clip-path="url(#clip36_447)">
		<rect id="Frame" rx="0.000000" width="23.000000" height="23.000000" transform="matrix(-1 0 0 1 28.5 4.5)" fill="#FFFFFF" fill-opacity="0"/>
		<g clip-path="url(#clip36_451)">
			<path id="Vector" d="M17 19L15 19C14.46 19 13.96 18.78 13.58 18.41C13.21 18.03 13 17.53 13 17C13 16.46 13.21 15.96 13.58 15.58C13.96 15.21 14.46 15 15 15L18 15C18.6 15 19.1 15.2 19.4 15.6L25 21" stroke="#120C08" stroke-opacity="1.000000" stroke-width="1.000000" stroke-linejoin="round" stroke-linecap="round"/>
			<path id="Vector" d="M21 25L19.4 23.6C19.1 23.2 18.6 23 18 23L14 23C12.9 23 11.9 22.6 11.2 21.8L6.59 17.4C6.21 17.03 5.98 16.53 5.97 16C5.95 15.47 6.15 14.95 6.52 14.57C6.88 14.18 7.38 13.95 7.91 13.94C8.44 13.92 8.96 14.12 9.34 14.49L13.55 18.39" stroke="#120C08" stroke-opacity="1.000000" stroke-width="1.000000" stroke-linejoin="round" stroke-linecap="round"/>
			<path id="Vector" d="M26 24L20 24" stroke="#120C08" stroke-opacity="1.000000" stroke-width="1.000000" stroke-linejoin="round" stroke-linecap="round"/>
			<path id="Vector" d="M12 15.9C13.6 15.9 14.9 14.6 14.9 13C14.9 11.39 13.6 10.1 12 10.1C10.39 10.1 9.1 11.39 9.1 13C9.1 14.6 10.39 15.9 12 15.9Z" stroke="#120C08" stroke-opacity="1.000000" stroke-width="1.000000" stroke-linejoin="round"/>
			<path id="Vector" d="M22 12C23.65 12 25 10.65 25 9C25 7.34 23.65 6 22 6C20.34 6 19 7.34 19 9C19 10.65 20.34 12 22 12Z" stroke="#120C08" stroke-opacity="1.000000" stroke-width="1.000000" stroke-linejoin="round"/>
		</g>
	</g>
</svg>
