<svg width="32.000000" height="32.000000" viewBox="0 0 32 32" fill="none" xmlns="http://www.w3.org/2000/svg" xmlns:xlink="http://www.w3.org/1999/xlink">
	<desc>
			Created with Pixso.
	</desc>
	<defs>
		<clipPath id="clip81_416">
			<rect id="Frame" rx="0.000000" width="23.000000" height="23.000000" transform="translate(4.500000 4.500000)" fill="white" fill-opacity="0"/>
		</clipPath>
		<clipPath id="clip81_407">
			<rect id="Name=Eye, State=Default" rx="0.000000" width="31.000000" height="31.000000" transform="translate(0.500000 0.500000)" fill="white" fill-opacity="0"/>
		</clipPath>
	</defs>
	<g clip-path="url(#clip81_407)">
		<rect id="Frame" rx="0.000000" width="23.000000" height="23.000000" transform="translate(4.500000 4.500000)" fill="#FFFFFF" fill-opacity="0"/>
		<g clip-path="url(#clip81_416)">
			<path id="Vector" d="M6.06 15.65C6.87 13.68 8.25 12 10.02 10.81C11.79 9.63 13.87 9 16 9C18.12 9 20.2 9.63 21.97 10.81C23.74 12 25.12 13.68 25.93 15.65C26.02 15.87 26.02 16.12 25.93 16.34C25.12 18.31 23.74 19.99 21.97 21.18C20.2 22.36 18.12 22.99 16 22.99C13.87 22.99 11.79 22.36 10.02 21.18C8.25 19.99 6.87 18.31 6.06 16.34C5.97 16.12 5.97 15.87 6.06 15.65Z" stroke="#120C08" stroke-opacity="1.000000" stroke-width="1.000000" stroke-linejoin="round"/>
			<path id="Vector" d="M16 19C14.34 19 13 17.65 13 16C13 14.34 14.34 13 16 13C17.65 13 19 14.34 19 16C19 17.65 17.65 19 16 19Z" stroke="#120C08" stroke-opacity="1.000000" stroke-width="1.000000" stroke-linejoin="round"/>
		</g>
	</g>
</svg>
