<svg width="32.000000" height="32.000000" viewBox="0 0 32 32" fill="none" xmlns="http://www.w3.org/2000/svg" xmlns:xlink="http://www.w3.org/1999/xlink">
	<desc>
			Created with Pixso.
	</desc>
	<defs>
		<filter id="filter_10_8850_dd" x="0.000000" y="4.000000" width="32.000000" height="32.000000" filterUnits="userSpaceOnUse" color-interpolation-filters="sRGB">
			<feFlood flood-opacity="0" result="BackgroundImageFix"/>
			<feColorMatrix in="SourceAlpha" type="matrix" values="0 0 0 0 0 0 0 0 0 0 0 0 0 0 0 0 0 0 127 0" result="hardAlpha"/>
			<feOffset dx="0" dy="4"/>
			<feGaussianBlur stdDeviation="1.33333"/>
			<feComposite in2="hardAlpha" operator="out" k2="-1" k3="1"/>
			<feColorMatrix type="matrix" values="0 0 0 0 0 0 0 0 0 0 0 0 0 0 0 0 0 0 0.25 0"/>
			<feBlend mode="normal" in2="BackgroundImageFix" result="effect_dropShadow_1"/>
			<feBlend mode="normal" in="SourceGraphic" in2="effect_dropShadow_1" result="shape"/>
		</filter>
		<clipPath id="clip10_8850">
			<rect id="Shopping_cart" rx="0.000000" width="23.000000" height="23.000000" transform="translate(4.500000 4.500000)" fill="white" fill-opacity="0"/>
		</clipPath>
		<clipPath id="clip10_8851">
			<rect id="Icon_main" width="32.000000" height="32.000000" fill="white" fill-opacity="0"/>
		</clipPath>
	</defs>
	<g clip-path="url(#clip10_8851)">
		<g filter="url(#filter_10_8850_dd)">
			<rect id="Shopping_cart" rx="0.000000" width="23.000000" height="23.000000" transform="translate(4.500000 4.500000)" fill="#FFFFFF" fill-opacity="0"/>
			<g clip-path="url(#clip10_8850)">
				<path id="Vector" d="M12 26C11.44 26 11 25.55 11 25C11 24.44 11.44 24 12 24C12.55 24 13 24.44 13 25C13 25.55 12.55 26 12 26Z" stroke="#E3E2E1" stroke-opacity="1.000000" stroke-width="1.000000" stroke-linejoin="round"/>
				<path id="Vector" d="M23 26C22.44 26 22 25.55 22 25C22 24.44 22.44 24 23 24C23.55 24 24 24.44 24 25C24 25.55 23.55 26 23 26Z" stroke="#E3E2E1" stroke-opacity="1.000000" stroke-width="1.000000" stroke-linejoin="round"/>
				<path id="Vector" d="M6.05 6.04L8.05 6.04L10.71 18.46C10.8 18.92 11.06 19.33 11.42 19.61C11.79 19.9 12.24 20.06 12.71 20.04L22.49 20.04C22.94 20.04 23.38 19.89 23.74 19.6C24.09 19.32 24.34 18.92 24.43 18.48L26.09 11.05L9.12 11.05" stroke="#E3E2E1" stroke-opacity="1.000000" stroke-width="1.000000" stroke-linejoin="round" stroke-linecap="round"/>
			</g>
		</g>
	</g>
</svg>
