<svg width="184.000000" height="184.000000" viewBox="0 0 184 184" fill="none" xmlns="http://www.w3.org/2000/svg" xmlns:xlink="http://www.w3.org/1999/xlink">
	<desc>
			Created with Pixso.
	</desc>
	<defs>
		<clipPath id="clip337_2304">
			<rect id="Frame" rx="0.000000" width="23.000000" height="23.000000" transform="translate(81.500000 96.500000)" fill="white" fill-opacity="0"/>
		</clipPath>
		<clipPath id="clip337_2255">
			<rect id="Frame" rx="0.000000" width="183.000000" height="183.000000" transform="translate(0.500000 0.500000)" fill="white" fill-opacity="0"/>
		</clipPath>
	</defs>
	<rect id="Frame" rx="0.000000" width="183.000000" height="183.000000" transform="translate(0.500000 0.500000)" fill="#FFFFFF" fill-opacity="0"/>
	<g clip-path="url(#clip337_2255)">
		<circle id="Ellipse 3" cx="93.000000" cy="108.000000" r="36.000000" fill="#25CA98" fill-opacity="1.000000"/>
		<path id="Vector" d="M23 47.5L23 152.7C23 156.75 24.61 160.64 27.49 163.51C30.36 166.38 34.26 168 38.33 168L145.66 168C149.73 168 153.63 166.38 156.5 163.51C159.38 160.64 161 156.75 161 152.7L161 48L138 15L46 15L23 47.5Z" stroke="#000000" stroke-opacity="1.000000" stroke-width="2.000000" stroke-linejoin="round"/>
		<path id="Vector" d="M23 48L161 48" stroke="#000000" stroke-opacity="1.000000" stroke-width="2.000000" stroke-linejoin="round" stroke-linecap="round"/>
		<path id="Vector" d="M35 31L149 31" stroke="#000000" stroke-opacity="1.000000" stroke-width="2.000000" stroke-linejoin="round" stroke-linecap="round"/>
		<rect id="Frame" rx="0.000000" width="23.000000" height="23.000000" transform="translate(81.500000 96.500000)" fill="#FFFFFF" fill-opacity="0"/>
		<g clip-path="url(#clip337_2304)">
			<path id="Vector" d="M101 102L90 113L85 108" stroke="#FFFCFA" stroke-opacity="1.000000" stroke-width="3.000000" stroke-linejoin="round" stroke-linecap="round"/>
		</g>
	</g>
</svg>
