<svg width="184.000000" height="184.000000" viewBox="0 0 184 184" fill="none" xmlns="http://www.w3.org/2000/svg" xmlns:xlink="http://www.w3.org/1999/xlink">
	<desc>
			Created with Pixso.
	</desc>
	<defs>
		<clipPath id="clip339_3087">
			<rect id="Frame" rx="0.000000" width="183.000000" height="183.000000" transform="translate(0.500000 0.500000)" fill="white" fill-opacity="0"/>
		</clipPath>
	</defs>
	<rect id="Frame" rx="0.000000" width="183.000000" height="183.000000" transform="translate(0.500000 0.500000)" fill="#FFFFFF" fill-opacity="0"/>
	<g clip-path="url(#clip339_3087)">
		<path id="Ellipse 3" d="M129 72C129 81.93 124.96 90.93 118.44 97.44C111.43 104.47 102.21 107.99 93 107.99C83.06 108 74.06 103.96 67.55 97.44C60.52 90.43 57 81.21 57 72L58.95 72C58.95 81.39 62.76 89.9 68.93 96.06C75.56 102.71 84.28 106.03 93 106.03C102.39 106.04 110.9 102.23 117.06 96.06C123.71 89.43 127.03 80.71 127.04 72L129 72Z" fill="#120C08" fill-opacity="1.000000" fill-rule="evenodd"/>
		<path id="Vector" d="M23 47.5L23 152.7C23 156.75 24.61 160.64 27.49 163.51C30.36 166.38 34.26 168 38.33 168L145.66 168C149.73 168 153.63 166.38 156.5 163.51C159.38 160.64 161 156.75 161 152.7L161 48L138 15L46 15L23 47.5Z" stroke="#000000" stroke-opacity="1.000000" stroke-width="2.000000" stroke-linejoin="round"/>
		<path id="Vector" d="M23 48L161 48" stroke="#000000" stroke-opacity="1.000000" stroke-width="2.000000" stroke-linejoin="round" stroke-linecap="round"/>
		<path id="Vector" d="M35 31L149 31" stroke="#000000" stroke-opacity="1.000000" stroke-width="2.000000" stroke-linejoin="round" stroke-linecap="round"/>
	</g>
</svg>
