<svg width="32.000000" height="32.000000" viewBox="0 0 32 32" fill="none" xmlns="http://www.w3.org/2000/svg" xmlns:xlink="http://www.w3.org/1999/xlink">
	<desc>
			Created with Pixso.
	</desc>
	<defs>
		<clipPath id="clip184_991">
			<rect id="Shopping_cart" rx="0.000000" width="23.000000" height="23.000000" transform="translate(4.500000 4.500000)" fill="white" fill-opacity="0"/>
		</clipPath>
		<clipPath id="clip184_990">
			<rect id="Name=Shopping_cart, State=Hover" rx="0.000000" width="31.000000" height="31.000000" transform="translate(0.500000 0.500000)" fill="white" fill-opacity="0"/>
		</clipPath>
	</defs>
	<g clip-path="url(#clip184_990)">
		<rect id="Shopping_cart" rx="0.000000" width="23.000000" height="23.000000" transform="translate(4.500000 4.500000)" fill="#FFFFFF" fill-opacity="0"/>
		<g clip-path="url(#clip184_991)">
			<path id="Vector" d="M12 26C11.44 26 11 25.55 11 25C11 24.44 11.44 24 12 24C12.55 24 13 24.44 13 25C13 25.55 12.55 26 12 26Z" stroke="#E3BF9F" stroke-opacity="1.000000" stroke-width="1.000000" stroke-linejoin="round"/>
			<path id="Vector" d="M23 26C22.44 26 22 25.55 22 25C22 24.44 22.44 24 23 24C23.55 24 24 24.44 24 25C24 25.55 23.55 26 23 26Z" stroke="#E3BF9F" stroke-opacity="1.000000" stroke-width="1.000000" stroke-linejoin="round"/>
			<path id="Vector" d="M6.05 6.04L8.05 6.04L10.71 18.46C10.8 18.92 11.06 19.33 11.42 19.61C11.79 19.9 12.24 20.06 12.71 20.04L22.49 20.04C22.94 20.04 23.38 19.89 23.74 19.6C24.09 19.32 24.34 18.92 24.44 18.48L26.09 11.05L9.12 11.05" stroke="#E3BF9F" stroke-opacity="1.000000" stroke-width="1.000000" stroke-linejoin="round" stroke-linecap="round"/>
		</g>
	</g>
</svg>
