<svg width="32.000000" height="32.000000" viewBox="0 0 32 32" fill="none" xmlns="http://www.w3.org/2000/svg" xmlns:xlink="http://www.w3.org/1999/xlink">
	<desc>
			Created with Pixso.
	</desc>
	<defs>
		<clipPath id="clip184_933">
			<rect id="Frame" rx="0.000000" width="23.000000" height="23.000000" transform="translate(4.500000 4.500000)" fill="white" fill-opacity="0"/>
		</clipPath>
		<clipPath id="clip184_932">
			<rect id="Name=Computer, State=Press" rx="0.000000" width="31.000000" height="31.000000" transform="translate(0.500000 0.500000)" fill="white" fill-opacity="0"/>
		</clipPath>
	</defs>
	<g clip-path="url(#clip184_932)">
		<rect id="Frame" rx="0.000000" width="23.000000" height="23.000000" transform="translate(4.500000 4.500000)" fill="#FFFFFF" fill-opacity="0"/>
		<g clip-path="url(#clip184_933)">
			<path id="Vector" d="M24 11C24 10.46 23.78 9.96 23.41 9.58C23.03 9.21 22.53 9 22 9L9.99 9C9.46 9 8.96 9.21 8.58 9.58C8.21 9.96 7.99 10.46 7.99 11L7.99 20L6.71 22.55C6.64 22.7 6.6 22.87 6.61 23.04C6.62 23.21 6.67 23.38 6.76 23.52C6.85 23.67 6.97 23.79 7.12 23.87C7.27 23.95 7.44 24 7.62 24L24.38 24C24.55 24 24.72 23.95 24.87 23.87C25.02 23.79 25.14 23.67 25.23 23.52C25.32 23.38 25.37 23.21 25.38 23.04C25.39 22.87 25.35 22.7 25.28 22.55L24 20L24 11ZM24 20L7.99 20" stroke="#FD7600" stroke-opacity="1.000000" stroke-width="1.000000" stroke-linejoin="round"/>
		</g>
	</g>
</svg>
