<svg width="32.000000" height="32.000000" viewBox="0 0 32 32" fill="none" xmlns="http://www.w3.org/2000/svg" xmlns:xlink="http://www.w3.org/1999/xlink">
	<desc>
			Created with Pixso.
	</desc>
	<defs>
		<clipPath id="clip184_914">
			<rect id="Heart" rx="0.000000" width="23.000000" height="23.000000" transform="translate(4.500000 4.500000)" fill="white" fill-opacity="0"/>
		</clipPath>
		<clipPath id="clip184_913">
			<rect id="Name=Heart, State=Press" rx="0.000000" width="31.000000" height="31.000000" transform="translate(0.500000 0.500000)" fill="white" fill-opacity="0"/>
		</clipPath>
	</defs>
	<g clip-path="url(#clip184_913)">
		<rect id="Heart" rx="0.000000" width="23.000000" height="23.000000" transform="translate(4.500000 4.500000)" fill="#FFFFFF" fill-opacity="0"/>
		<g clip-path="url(#clip184_914)">
			<path id="Vector" d="M26 12.5C26 11.04 25.42 9.64 24.38 8.61C23.35 7.57 21.95 7 20.5 7C18.74 7 17.5 7.5 16 9C14.5 7.5 13.26 7 11.5 7C10.04 7 8.64 7.57 7.61 8.61C6.57 9.64 6 11.04 6 12.5C6 14.8 7.5 16.54 9 18L16 25L23 18C24.49 16.54 26 14.79 26 12.5Z" stroke="#FD7600" stroke-opacity="1.000000" stroke-width="1.000000" stroke-linejoin="round"/>
		</g>
	</g>
</svg>
