<svg width="32.000000" height="32.000000" viewBox="0 0 32 32" fill="none" xmlns="http://www.w3.org/2000/svg" xmlns:xlink="http://www.w3.org/1999/xlink">
	<desc>
			Created with Pixso.
	</desc>
	<defs>
		<clipPath id="clip510_6446">
			<rect id="Name=House, State=Hover" rx="0.000000" width="31.000000" height="31.000000" transform="translate(0.500000 0.500000)" fill="white" fill-opacity="0"/>
		</clipPath>
	</defs>
	<rect id="Name=House, State=Hover" rx="0.000000" width="31.000000" height="31.000000" transform="translate(0.500000 0.500000)" fill="#FFFFFF" fill-opacity="0"/>
	<g clip-path="url(#clip510_6446)">
		<path id="Vector" d="M19 25L19 17.88C19 17.65 18.89 17.42 18.7 17.26C18.51 17.09 18.26 17 18 17L14 17C13.73 17 13.48 17.09 13.29 17.26C13.1 17.42 13 17.65 13 17.88L13 25" stroke="#E3BF9F" stroke-opacity="1.000000" stroke-width="1.000000" stroke-linejoin="round" stroke-linecap="round"/>
		<path id="Vector" d="M13 25C12.46 25 7.96 24.98 7.58 24.62C7.21 24.26 7 23.6 7 23.1L7 14.57C6.99 14.3 7.06 14.03 7.18 13.78C7.3 13.53 7.48 13.3 7.7 13.13L14.7 7.44C15.07 7.15 15.52 7 16 7C16.47 7 16.93 7.15 17.29 7.44L24.29 13.13C24.51 13.3 24.69 13.53 24.81 13.78C24.93 14.03 25 14.3 25 14.57L25 23.1C25 23.6 24.78 24.08 24.41 24.44C24.03 24.8 23.53 25 23 25L19 25" stroke="#E3BF9F" stroke-opacity="1.000000" stroke-width="1.000000" stroke-linejoin="round" stroke-linecap="round"/>
	</g>
</svg>
