<svg width="32.000000" height="32.000000" viewBox="0 0 32 32" fill="none" xmlns="http://www.w3.org/2000/svg" xmlns:xlink="http://www.w3.org/1999/xlink">
	<desc>
			Created with Pixso.
	</desc>
	<defs>
		<clipPath id="clip7_488">
			<rect id="Frame" rx="0.000000" width="23.000000" height="23.000000" transform="translate(4.500000 4.500000)" fill="white" fill-opacity="0"/>
		</clipPath>
		<clipPath id="clip7_481">
			<rect id="Name=Headphone, State=Default" rx="0.000000" width="31.000000" height="31.000000" transform="translate(0.500000 0.500000)" fill="white" fill-opacity="0"/>
		</clipPath>
	</defs>
	<g clip-path="url(#clip7_481)">
		<rect id="Frame" rx="0.000000" width="23.000000" height="23.000000" transform="translate(4.500000 4.500000)" fill="#FFFFFF" fill-opacity="0"/>
		<g clip-path="url(#clip7_488)">
			<path id="Vector" d="M7 18L10 18C10.53 18 11.03 18.21 11.41 18.58C11.78 18.96 12 19.46 12 20L12 23C12 23.53 11.78 24.03 11.41 24.41C11.03 24.78 10.53 25 10 25L9 25C8.46 25 7.96 24.78 7.58 24.41C7.21 24.03 7 23.53 7 23L7 16C7 13.61 7.94 11.32 9.63 9.63C11.32 7.94 13.61 7 16 7C18.38 7 20.67 7.94 22.36 9.63C24.05 11.32 25 13.61 25 16L25 23C25 23.53 24.78 24.03 24.41 24.41C24.03 24.78 23.53 25 23 25L22 25C21.46 25 20.96 24.78 20.58 24.41C20.21 24.03 20 23.53 20 23L20 20C20 19.46 20.21 18.96 20.58 18.58C20.96 18.21 21.46 18 22 18L25 18" stroke="#120C08" stroke-opacity="1.000000" stroke-width="1.000000" stroke-linejoin="round" stroke-linecap="round"/>
		</g>
	</g>
</svg>
